<!-- Generator: Adobe Illustrator 25.2.3, SVG Export Plug-In  -->
<svg version="1.1" xmlns="http://www.w3.org/2000/svg" xmlns:xlink="http://www.w3.org/1999/xlink" x="0px" y="0px"
	 width="357.95px" height="50.33px" viewBox="0 0 357.95 50.33" style="overflow:visible;enable-background:new 0 0 357.95 50.33;"
	 xml:space="preserve">
<style type="text/css">
	.st0{fill:#ACA29A;}
</style>
<defs>
</defs>
<g>
	<path class="st0" d="M22.57,49.77h-0.77c-0.63,0-1.05-0.28-1.27-0.91L12.3,28.19h-0.98H2.81v20.46c0,0.7-0.42,1.12-1.12,1.12H1.12
		c-0.7,0-1.12-0.42-1.12-1.12V1.69c0-0.7,0.42-1.12,1.12-1.12h10.19c7.45,0,10.97,3.66,10.97,10.4v6.82c0,5.41-2.25,8.86-7.03,9.98
		l8.22,20.67C23.76,49.21,23.41,49.77,22.57,49.77z M19.47,16.52v-4.29c0-6.33-2.25-9-8.44-9H2.81v22.28h8.22
		C17.22,25.52,19.47,22.85,19.47,16.52z"/>
	<path class="st0" d="M41.96,0h0.56c7.45,0,10.97,3.66,10.97,10.4v29.52c0,6.75-3.52,10.4-10.97,10.4h-0.56
		c-7.45,0-10.97-3.66-10.97-10.4V10.4C31,3.58,34.51,0,41.96,0z M42.25,47.66c6.19,0,8.44-2.67,8.44-9V11.67c0-6.33-2.25-9-8.44-9
		s-8.44,2.67-8.44,9v26.99C33.81,44.99,36.06,47.66,42.25,47.66z"/>
	<path class="st0" d="M79.43,24.18c4.78,0.7,5.76,4.71,5.76,7.8v8.08c0,5.48-3.37,9.7-10.83,9.7H64.18c-0.7,0-1.12-0.42-1.12-1.12
		V1.69c0-0.7,0.42-1.12,1.12-1.12h10.33c7.45,0,10.4,4.22,10.4,9.7v6.19C84.91,19.54,83.93,23.76,79.43,24.18z M65.86,22.99h8.51
		c5.13,0,7.73-1.9,7.73-5.91v-5.69c0-5.41-1.9-8.16-7.73-8.16h-8.51V22.99z M74.65,25.66h-8.79V47.1h8.79
		c5.83,0,7.73-2.74,7.73-8.16v-7.38C82.38,27.56,79.78,25.66,74.65,25.66z"/>
	<path class="st0" d="M104.73,0h0.56c7.45,0,10.97,3.66,10.97,10.4v29.52c0,6.75-3.51,10.4-10.97,10.4h-0.56
		c-7.45,0-10.97-3.66-10.97-10.4V10.4C93.77,3.58,97.28,0,104.73,0z M105.02,47.66c6.19,0,8.44-2.67,8.44-9V11.67
		c0-6.33-2.25-9-8.44-9s-8.44,2.67-8.44,9v26.99C96.58,44.99,98.83,47.66,105.02,47.66z"/>
	<path class="st0" d="M143.54,1.69v0.42c0,0.7-0.42,1.12-1.12,1.12h-8.37v45.41c0,0.7-0.42,1.12-1.12,1.12h-0.56
		c-0.7,0-1.12-0.42-1.12-1.12V3.23h-8.37c-0.7,0-1.12-0.42-1.12-1.12V1.69c0-0.7,0.42-1.12,1.12-1.12h19.54
		C143.12,0.56,143.54,0.98,143.54,1.69z"/>
	<path class="st0" d="M182.69,49.77h-0.77c-0.63,0-1.05-0.28-1.27-0.91l-8.22-20.67h-0.98h-8.51v20.46c0,0.7-0.42,1.12-1.12,1.12
		h-0.56c-0.7,0-1.12-0.42-1.12-1.12V1.69c0-0.7,0.42-1.12,1.12-1.12h10.19c7.45,0,10.97,3.66,10.97,10.4v6.82
		c0,5.41-2.25,8.86-7.03,9.98l8.22,20.67C183.88,49.21,183.53,49.77,182.69,49.77z M179.6,16.52v-4.29c0-6.33-2.25-9-8.44-9h-8.22
		v22.28h8.22C177.35,25.52,179.6,22.85,179.6,16.52z"/>
	<path class="st0" d="M202.09,0h0.56c7.45,0,10.97,3.66,10.97,10.4v29.52c0,6.75-3.51,10.4-10.97,10.4h-0.56
		c-7.45,0-10.97-3.66-10.97-10.4V10.4C191.12,3.58,194.64,0,202.09,0z M202.37,47.66c6.19,0,8.44-2.67,8.44-9V11.67
		c0-6.33-2.25-9-8.44-9c-6.19,0-8.44,2.67-8.44,9v26.99C193.93,44.99,196.18,47.66,202.37,47.66z"/>
	<path class="st0" d="M233.86,0h0.56c7.45,0,10.97,3.66,10.97,10.4v29.52c0,6.75-3.51,10.4-10.97,10.4h-0.56
		c-7.45,0-10.97-3.66-10.97-10.4V10.4C222.89,3.58,226.41,0,233.86,0z M234.14,47.66c6.19,0,8.44-2.67,8.44-9V11.67
		c0-6.33-2.25-9-8.44-9c-6.19,0-8.44,2.67-8.44,9v26.99C225.71,44.99,227.96,47.66,234.14,47.66z"/>
	<path class="st0" d="M274.35,17.43h-0.56c-0.7,0-1.12-0.42-1.12-1.12v-5.06c0-5.91-2.04-8.58-7.94-8.58
		c-5.91,0-7.94,2.67-7.94,8.58v3.44c0,3.94,1.41,4.85,5.41,7.03l7.94,4.29c3.09,1.69,5.48,4.57,5.48,7.87v6.19
		c0,6.89-3.3,10.26-10.75,10.26h-0.14c-7.45,0-10.76-3.3-10.76-10.26v-6.75c0-0.7,0.42-1.12,1.12-1.12h0.56
		c0.7,0,1.12,0.42,1.12,1.12v5.62c0,5.83,2.04,8.72,8.01,8.72c5.97,0,8.01-2.88,8.01-8.72v-3.94c0-3.94-1.62-5.2-5.69-7.45
		l-7.73-4.22c-3.94-2.18-5.41-4.01-5.41-7.66v-5.55C253.96,3.51,257.9,0,264.65,0h0.14c6.75,0,10.68,3.51,10.68,10.12v6.19
		C275.47,17.01,275.05,17.43,274.35,17.43z"/>
	<path class="st0" d="M302.04,1.69v0.42c0,0.7-0.42,1.12-1.12,1.12h-8.37v45.41c0,0.7-0.42,1.12-1.12,1.12h-0.56
		c-0.7,0-1.12-0.42-1.12-1.12V3.23h-8.37c-0.7,0-1.12-0.42-1.12-1.12V1.69c0-0.7,0.42-1.12,1.12-1.12h19.54
		C301.62,0.56,302.04,0.98,302.04,1.69z"/>
	<path class="st0" d="M325.94,49.77h-16.73c-0.7,0-1.12-0.42-1.12-1.12V1.69c0-0.7,0.42-1.12,1.12-1.12h16.52
		c0.7,0,1.12,0.42,1.12,1.12v0.42c0,0.7-0.42,1.12-1.12,1.12H310.9v20.25h12.65c0.7,0,1.12,0.42,1.12,1.12v0.42
		c0,0.7-0.42,1.12-1.12,1.12H310.9V47.1h15.04c0.7,0,1.12,0.42,1.12,1.12v0.42C327.07,49.35,326.65,49.77,325.94,49.77z"/>
	<path class="st0" d="M356.94,49.77h-0.77c-0.63,0-1.05-0.28-1.27-0.91l-8.22-20.67h-0.98h-8.51v20.46c0,0.7-0.42,1.12-1.12,1.12
		h-0.56c-0.7,0-1.12-0.42-1.12-1.12V1.69c0-0.7,0.42-1.12,1.12-1.12h10.19c7.45,0,10.97,3.66,10.97,10.4v6.82
		c0,5.41-2.25,8.86-7.03,9.98l8.22,20.67C358.14,49.21,357.79,49.77,356.94,49.77z M353.85,16.52v-4.29c0-6.33-2.25-9-8.44-9h-8.22
		v22.28h8.22C351.6,25.52,353.85,22.85,353.85,16.52z"/>
</g>
</svg>
