<!-- Generator: Adobe Illustrator 25.2.3, SVG Export Plug-In  -->
<svg version="1.1" xmlns="http://www.w3.org/2000/svg" xmlns:xlink="http://www.w3.org/1999/xlink" x="0px" y="0px"
	 width="464.24px" height="108.68px" viewBox="0 0 464.24 108.68"
	 style="overflow:visible;enable-background:new 0 0 464.24 108.68;" xml:space="preserve">
<style type="text/css">
	.st0{fill:#574A3F;}
	.st1{fill:#44382C;}
	.st2{fill:#ACA29B;}
	.st3{fill:#D4755D;}
	.st4{fill:#C22026;}
	.st5{fill:#131415;}
	.st6{fill:#ACA29A;}
</style>
<defs>
</defs>
<g>
	<path d="M85.74,106.95c-0.03,0.18-0.06,0.35-0.09,0.53c-2.17,0-4.35,0.12-6.51-0.03c-2.15-0.15-8.65-0.77-9.75-0.26
		c-0.18-0.11-0.36-0.22-0.53-0.33c0.69-1.27,1.38-1.67,2.07-2.94c-2.76-4.54-5.52-9.08-8.27-13.63c-0.62-1.03-1.19-2.1-1.86-3.29
		c-2.96,1.48-7,1.14-9.26,4.68c0,3.56,0,7.25,0,11.08c0.59,0.4,4.54,3.94,6.88,3.01c0-0.37,0-0.77,0-1.38
		c1.21,1.14,2.28,2.15,3.5,3.31c-4.4-0.09-7.26,0.07-10.74-0.29c-2.1-0.22-4.24-0.04-6.47-0.04c0-0.02,0.05-0.64,0.11-1.27
		c1.09-0.73,2.09-1.41,3.09-2.09c0-0.97,0.18-1.98-0.02-2.9c-1.55-7.25-3.18-14.48-4.78-21.72c0.16-0.01,0.32-0.01,0.48-0.02
		c-0.44-0.58-0.87-1.15-1.33-1.75c-4.04,0.55-7.97,1.09-12.4,1.69c0.12-2.78,0.23-5.18,0.35-7.9c-2.6,1.73-5.05,3.36-7.78,5.18
		c-2.03-2.04-4.07-4.08-6.11-6.12c-0.34-0.34-0.67-0.81-1.09-0.96c-3.67-1.28-5.48-4.41-7.88-7.51c1.11-0.48,1.91-0.83,2.58-1.12
		c-1.05-3.46-2.11-6.96-3.26-10.73c-1.53,0-3.23,0-5.43,0c0.32-4.31,0.61-8.35,0.9-12.28c1.9-0.33,3.16-0.55,4.39-0.76
		c0.56-2.5,1.1-4.87,1.61-7.11c16.3-3.8,32.97,1.06,38.49,22.17c2.25-0.81,4.5-1.59,6.72-2.44c2.29-0.88,4.55-1.83,7.35-2.97
		c0.96-2.69,2.3-5.67,3.06-8.79c1.01-4.14,1.64-8.38,2.28-12.6c0.67-4.43,2.23-8.44,5.22-11.64c-2.01-3.18-3.86-6.12-5.96-9.44
		c2.32-0.56,4.05-0.97,5.8-1.39c0.1-0.47,0.22-1,0.38-1.72c2.77,0.23,5.43,0.45,8.08,0.68c0.62,0.91,1.37,1.49,2.23,1.83
		c4.01,1.59,7.11,4.1,8.67,8.3c-0.72,0.77-1.39,1.49-1.9,2.03c1.69,1.8,3.27,3.49,4.86,5.18c-0.12,0.24-0.24,0.47-0.35,0.71
		c-1.26,0.13-2.52,0.25-3.91,0.39c4.23,4.24,3.52,9.79-1.82,13.09c1.76,2.96,3.51,5.92,5.31,8.94c-0.9,0.6-1.39,0.93-1.63,1.09
		c0.99,4.28,1.94,8.4,2.87,12.45c-1.03,0.46-1.58,0.71-2.06,0.93c-0.18,8.4-3.24,15.28-9.48,20.92c-0.82-0.72-1.45-1.26-2.04-1.78
		c-4.98,3-7.04,8.27-10.64,12.45c1.73,5.08,3.42,10.05,5.07,14.9c2.61,0.92,4.89,1.73,7.39,2.61c0.08-0.96,0.11-1.4,0.15-1.86
		c0.3,0.15,0.49,0.25,0.68,0.34C83.89,105.23,84.81,106.09,85.74,106.95z M81.49,18.59c0.48-0.06,1.46-0.19,2.47-0.32
		c-0.89-1.3-0.89-1.3-6.99-1.16c-1.11,0.23-2.21,0.45-3.38,0.69c-0.05,2.68,1.36,4.47,2.82,6.24c0.31-0.01,0.79,0.09,0.89-0.06
		c0.76-1.18,1.45-2.4,2.26-3.78c-0.38-0.69-0.88-1.59-1.38-2.5C79.12,17.95,80.06,18.21,81.49,18.59z M85.64,34.98
		c-0.66-0.34-1.32-0.68-1.98-1.02c-0.2,0.19-0.41,0.38-0.61,0.56c0.73,2.57,0.03,5.42,1.89,7.78c1.54-0.3,3.09-0.59,5.23-1.01
		c-1.64-2.12-3.08-3.99-4.52-5.87C85.65,35.28,85.64,35.13,85.64,34.98z M75.63,59.43c-0.38-4.97-3.04-8.32-7.57-10.07
		c-4.63-1.78-8.88-0.99-12.47,2.6c-0.45,0.58-0.91,1.17-1.36,1.75c-0.72,1.74-1.44,3.47-2.16,5.21c-0.44,4.27,0.89,7.89,4.04,10.82
		c0.29,0.27,0.73,0.37,1.1,0.55c4.44,3.89,12.43,2.63,16.21-2.56c0.3-0.41,0.54-0.85,0.8-1.28c0.08-0.11,0.12-0.24,0.1-0.38
		c0.4-1.02,0.81-2.05,1.21-3.07C75.57,61.81,75.6,60.62,75.63,59.43z M30.99,68.81c0.22-0.59,0.58-1.57,1.17-3.19
		c-2.04,0.49-3.51,0.85-4.99,1.21c-2.91,0.66-5.83,1.32-8.74,1.98c0,0.36-0.15,0.84,0.03,1.05c1.24,1.49,2.55,2.92,3.94,4.49
		c1.85-1.4,3.32-2.51,4.78-3.61C28.32,70.16,29.46,69.58,30.99,68.81z M72.45,4.75c-1.29,0.21-2.53,0.42-4.13,0.69
		c0.61,0.92,1.07,1.61,1.53,2.3c1.01,1.52,2.03,3.03,3.11,4.65c0.85-0.23,1.59-0.42,2.55-0.68c-0.29-0.74-0.55-1.41-0.81-2.08
		C73.98,8.07,73.26,6.51,72.45,4.75z M86.55,12.97c0.13-0.26,0.25-0.51,0.38-0.77c-2.46-1.23-4.93-2.46-7.79-3.89
		c-0.26-1.21-0.61-2.88-1-4.67c-1.35-0.1-2.7-0.21-4.34-0.34c0.69,1.24,1.28,2.29,1.86,3.35c0.77,1.55,1.54,3.09,2.27,4.54
		c2.13,0.22,4.06,0.41,5.99,0.6C84.8,12.2,85.67,12.59,86.55,12.97z M91.71,54.53c-0.95-3.68-1.86-7.21-2.84-11.01
		c-0.77,0.29-1.17,0.44-1.58,0.59c-0.7,0.05-1.4,0.09-2.2,0.15c0,3.78,0,7.37,0,11.28c1-0.19,1.65-0.31,2.3-0.43
		C88.65,54.94,89.92,54.77,91.71,54.53z M67.84,30.77c-1.66,5.27-3.27,10.4-4.88,15.53c0.2,0.11,0.4,0.22,0.6,0.33
		c0.46-0.01,0.92-0.01,1.37-0.02c0.79,0.05,1.57,0.09,2.67,0.15c0.64-3.79,1.3-7.5,1.84-11.22c0.06-0.43-0.51-0.96-0.79-1.45
		C68.39,32.96,68.11,31.84,67.84,30.77z M88.58,22.57c-2.15-2.36-5.39-2.46-7.76-0.23c-1.54,1.98-2.45,4.04-1.08,6.52
		c1.5,2.72,3.98,2.78,6.8,2.55c0.5-0.47,1.12-1.05,1.74-1.63C90.48,27.81,90.61,24.79,88.58,22.57z M49.89,65.56
		c-0.65,0.24-1.44,0.54-2.23,0.84c-1.53,0.29-3.06,0.58-4.59,0.87c-0.97,2.56-1.88,4.97-2.79,7.37c-0.15,0.37-0.31,0.74-0.55,1.31
		c6.07-0.89,11.91-1.75,17.75-2.6c0.01-0.12,0.03-0.25,0.04-0.37c-0.66-0.19-1.32-0.37-1.97-0.56
		C53.71,70.19,51.87,67.96,49.89,65.56z M77.77,69.62c1.48,1.77,2.97,3.54,4.57,5.44c4.9-5.12,7.4-11.03,7.48-18.36
		c-0.73,0.23-1.27,0.41-1.82,0.58c-1.12,0.06-2.23,0.12-3.59,0.2c-1.92,3.85-3.57,8.06-7.86,10.42c0.51,0.45,0.87,0.77,1.23,1.09
		C77.77,69.2,77.77,69.41,77.77,69.62z M76.03,46.29c-0.15,1.85-0.73,3.66-1.15,5.67c0.47,0.61,1.03,1.34,1.59,2.07
		c0.6,1.35,1.2,2.7,1.79,4.05c-0.2,1.64-0.4,3.28-0.6,4.93c0.29,0.1,0.59,0.2,0.88,0.3c0.33-0.71,0.67-1.42,1-2.13
		c0.7-1.02,1.72-1.95,2.06-3.08c1.29-4.28,1.34-8.66,0.66-13.07c-0.49-3.2-0.95-6.4-1.43-9.59c0.07-2.49-1.71-3.77-3.49-5.38
		c-0.18,0.49-0.28,0.78-0.38,1.07C76.66,36.17,76.43,41.24,76.03,46.29z M34.75,61.59c-0.05-0.25-0.09-0.5-0.14-0.75
		c-7.94,0.58-15.88,1.17-23.82,1.75c-0.07,0.25-0.15,0.5-0.22,0.76c1.17,1,2.35,2,3.52,3c0.47,0.28,1,0.88,1.4,0.8
		c4.77-0.93,9.51-1.97,14.26-2.97c1.45-0.74,3.55-0.08,4.43-2.06C34.36,61.93,34.56,61.76,34.75,61.59z M52.29,52.27
		c-5,1.77-9.79,2.97-13.25,7.13c-3.44,4.15-6.05,8.61-6.91,13.97c-0.15,0.95,0.1,1.96,0.17,2.94c3.44,1.07,4.8,0.23,6.05-3.33
		c0.87-2.49,2.04-4.87,3.21-7.61c1.75-0.37,3.7-0.79,5.65-1.2c0.8-0.23,1.61-0.47,2.39-0.7c0.25-2.5,0.47-4.82,0.7-7.14
		C50.91,55.11,51.5,53.89,52.29,52.27z M76.49,71.62c-0.58-0.65-1.17-1.29-1.75-1.94c-0.01,0.25-0.02,0.49-0.02,0.74
		c-2.84,1.37-5.56,3.25-8.56,3.99c-4.01,0.99-8.24,1.05-12.37,1.58c-2.44,0.31-4.87,0.76-7.46,1.17c0.42,1.03,0.68,1.68,0.94,2.33
		c2.29,2.49,4.59,4.98,6.93,7.52c9.28-2.4,17.31-6.84,24.83-12.64c-0.29-0.38-0.54-0.71-0.79-1.03
		C77.65,72.77,77.07,72.19,76.49,71.62z M71.28,16.95c-2.4,3.16-2.95,6.51-3.41,10.02c0.65,1.2,1.19,2.57,2.04,3.71
		c1.8,2.41,1.89,4.99,1.3,7.79c-0.63,2.96-1.1,5.96-1.67,9.08c0.33,0.23,0.73,0.51,1.12,0.79c0.75,0.42,1.5,0.83,2.59,1.43
		c0.36-1.83,0.95-3.6,1-5.38c0.14-5.4-0.06-10.81,0.12-16.2c0.09-2.77-0.93-4.87-2.75-6.76C71.52,20.07,71.42,18.71,71.28,16.95z
		 M12.18,60.38c6.92-0.55,13.54-1.07,20.15-1.6c0.17,0.21,0.34,0.42,0.51,0.64c0.74-0.95,1.47-1.91,2.21-2.86
		c0.49,0.08,0.98,0.16,1.7,0.27c-5.94-4.21-19.88-6.74-27.94-6.43c0.6,1.82,1.17,3.55,1.75,5.29
		C11.11,57.31,11.67,58.94,12.18,60.38z M14.53,37.11c8.82,0.62,16.51,3.9,23.04,9.81c1.87,1.69,3.44,3.71,5.21,5.51
		c0.33,0.34,0.97,0.39,1.46,0.57c0.13-0.15,0.26-0.29,0.4-0.44c-0.58-1.48-1.15-2.96-1.73-4.45c-3.06-8.93-9.19-14.54-18.39-16.61
		c-2.38-0.53-4.89-0.68-7.34-0.69c-2.38-0.01-4.76,0.37-7.66,0.63c-0.08,1.66-0.16,3.25-0.24,4.84
		C11.04,36.57,12.78,36.99,14.53,37.11z M40.79,53.21C31.91,42.49,20.48,37.96,6.68,39.19c-0.79,0.07-1.58,0.16-2.74,0.28
		c-0.18,2.43-0.35,4.86-0.53,7.29c-0.03,0.38-0.05,0.77-0.07,1.1c3.7,0.21,7.22,0.39,10.75,0.62c8.15,0.53,15.95,2.41,23.29,6.06
		c1.29,0.64,2.59,1.17,3.36-0.72C40.76,53.62,40.89,53.32,40.79,53.21z M74.52,14.23c3.66,0.36,7.04,0.68,10.42,1.01
		c0.03-0.21,0.06-0.42,0.09-0.63C81.69,13.1,78.27,13.03,74.52,14.23z M80.91,7.08c1.98,0.89,3.85,1.73,5.72,2.57
		c0.11-0.18,0.22-0.36,0.33-0.54C84.99,7.8,83,6.5,81.02,5.2c-0.15,0.19-0.31,0.37-0.46,0.56C80.69,6.24,80.81,6.71,80.91,7.08z"/>
	<path class="st0" d="M3.41,46.76c-0.03,0.38-0.05,0.77-0.07,1.1c3.7,0.21,7.22,0.39,10.75,0.62c8.15,0.53,15.95,2.41,23.29,6.06
		c1.29,0.64,2.59,1.17,3.36-0.72c-0.59-0.41-1.21-0.77-1.76-1.23c-4.77-3.94-9.83-7.38-15.8-9.33c-0.83,1.19-1.57,2.25-2.34,3.35
		c-1.26-0.29-2.43-0.56-3.65-0.85c0.15-1.41,0.27-2.61,0.44-4.21c-4.25,0-8.27,0-12.21,0C4.73,43.33,4.07,45.05,3.41,46.76z"/>
	<path class="st0" d="M9.3,36.29c1.75,0.28,3.48,0.7,5.24,0.82c8.82,0.62,16.51,3.9,23.04,9.81c1.87,1.69,3.44,3.71,5.21,5.51
		c0.33,0.34,0.97,0.39,1.46,0.57c0.13-0.15,0.26-0.29,0.4-0.44c-0.58-1.48-1.15-2.96-1.73-4.45c-0.53-0.66-1.11-1.29-1.6-1.99
		c-3.11-4.47-7.13-7.87-11.97-10.43c-0.63,0.85-1.14,1.53-1.7,2.28c-1.75-0.6-3.43-1.18-5.08-1.74c0.09-0.8,0.15-1.36,0.28-2.44
		c-4.14-0.2-8.19-0.4-12.14-0.59C10.06,34.6,9.68,35.44,9.3,36.29z"/>
	<path class="st0" d="M10.55,55.69c0.56,1.62,1.13,3.24,1.63,4.69c6.92-0.55,13.54-1.07,20.15-1.6c0.17,0.21,0.34,0.42,0.51,0.64
		c0.74-0.95,1.47-1.91,2.21-2.86c-7.89-2.55-15.93-4.16-24.34-4.22C10.64,53.69,10.6,54.69,10.55,55.69z"/>
	<path class="st1" d="M76.49,71.62c-0.58-0.65-1.17-1.29-1.75-1.94c-0.01,0.25-0.02,0.49-0.02,0.74c-2.84,1.37-5.56,3.25-8.56,3.99
		c-4.01,0.99-8.24,1.05-12.37,1.58c-2.44,0.31-4.87,0.76-7.46,1.17c0.42,1.03,0.68,1.68,0.94,2.33c1.71,1.03,3.42,2.07,5.13,3.1
		C60.84,79.84,69.21,76.93,76.49,71.62z"/>
	<path class="st2" d="M3.41,46.76c0.66-1.71,1.32-3.43,2-5.2c3.94,0,7.96,0,12.21,0c-0.17,1.6-0.29,2.8-0.44,4.21
		c1.22,0.28,2.39,0.55,3.65,0.85c0.77-1.1,1.51-2.16,2.34-3.35c5.97,1.95,11.03,5.39,15.8,9.33c0.55,0.45,1.17,0.82,1.76,1.23
		c0.02-0.21,0.15-0.51,0.06-0.62C31.91,42.49,20.48,37.96,6.68,39.19c-0.79,0.07-1.58,0.16-2.74,0.28
		C3.76,41.91,3.59,44.34,3.41,46.76z"/>
	<path class="st2" d="M9.3,36.29c0.38-0.84,0.77-1.69,1.41-3.09c3.95,0.19,8,0.39,12.14,0.59c-0.12,1.08-0.19,1.64-0.28,2.44
		c1.65,0.57,3.33,1.14,5.08,1.74c0.56-0.75,1.07-1.43,1.7-2.28c4.84,2.56,8.86,5.96,11.97,10.43c0.48,0.7,1.06,1.33,1.6,1.99
		c-3.06-8.93-9.19-14.54-18.39-16.61c-2.38-0.53-4.89-0.68-7.34-0.69c-2.38-0.01-4.76,0.37-7.66,0.63
		C9.45,33.1,9.37,34.69,9.3,36.29z"/>
	<path class="st0" d="M32.31,76.32c3.44,1.07,4.8,0.23,6.05-3.33c0.87-2.49,2.04-4.87,3.21-7.61c1.75-0.37,3.7-0.79,5.65-1.2
		c0.45-2.45,0.91-4.89,1.36-7.34c-1.84,0.56-4.16,0.59-5.44,1.77C37.87,63.42,34.36,69.46,32.31,76.32z"/>
	<path class="st0" d="M79.54,61.17c0.7-1.02,1.72-1.95,2.06-3.08c1.29-4.28,1.34-8.66,0.66-13.07c-0.49-3.2-0.95-6.4-1.43-9.59
		c-0.99-0.6-1.99-1.19-2.98-1.79c0.05,0.86,0.09,1.73,0.16,2.59c0.51,6.02,0.49,12-1.55,17.8c0.6,1.35,1.2,2.7,1.79,4.05
		C78.69,59.11,79.11,60.14,79.54,61.17z"/>
	<path class="st2" d="M75.63,59.43c-0.38-4.97-3.04-8.32-7.57-10.07c-4.63-1.78-8.88-0.99-12.47,2.6c0.86,1.02,1.71,2.05,2.57,3.07
		c0.28-0.03,0.6,0.02,0.82-0.11c5.33-2.95,8.49-2.17,11.71,2.91c0.15,0.24,0.38,0.43,0.58,0.64C72.73,58.79,74.18,59.11,75.63,59.43
		z"/>
	<path class="st0" d="M52.07,58.93c-0.44,4.27,0.89,7.89,4.04,10.82c0.29,0.27,0.73,0.37,1.1,0.55c4.64,1.19,9.05,0.58,13.23-1.74
		c1.26-0.7,2.52-1.4,3.78-2.1c0.08-0.11,0.12-0.24,0.1-0.38c-1.14-1.1-2.28-2.21-3.41-3.31c-1.2,3.22-4.56,5.62-7.44,5.3
		c-4-0.44-6.61-3.18-7.16-7.49C54.9,60.02,53.49,59.47,52.07,58.93z"/>
	<path class="st0" d="M70.66,48.34c0.75,0.42,1.5,0.83,2.59,1.43c0.36-1.83,0.95-3.6,1-5.38c0.14-5.4-0.06-10.81,0.12-16.2
		c0.09-2.77-0.93-4.87-2.75-6.76c-1.53,3.31-2.47,6.58-0.01,9.94c0.66,0.89,1.41,2.13,1.29,3.11
		C72.31,39.12,71.43,43.72,70.66,48.34z"/>
	<path class="st0" d="M76.49,71.62c-7.28,5.3-15.65,8.22-24.1,10.97c0.86,0.62,1.71,1.24,2.43,1.76c8.77-2.08,16.4-5.89,23.4-11.02
		C77.65,72.77,77.07,72.19,76.49,71.62z"/>
	<path class="st2" d="M32.31,76.32c2.06-6.86,5.57-12.9,10.84-17.72c1.28-1.17,3.6-1.21,5.44-1.77c0.58-0.17,1.15-0.33,1.73-0.5
		c0.6-1.22,1.2-2.45,1.99-4.06c-5,1.77-9.79,2.97-13.25,7.13c-3.44,4.15-6.05,8.61-6.91,13.97C31.99,74.32,32.24,75.33,32.31,76.32z
		"/>
	<path class="st3" d="M78.23,73.34c-7.01,5.12-14.63,8.93-23.4,11.02c-0.72-0.52-1.58-1.14-2.43-1.76c-1.71-1.03-3.42-2.07-5.13-3.1
		c2.29,2.49,4.59,4.98,6.93,7.52c9.28-2.4,17.31-6.84,24.83-12.64C78.73,73.99,78.48,73.66,78.23,73.34z"/>
	<path class="st3" d="M77.77,69.62c1.48,1.77,2.97,3.54,4.57,5.44c4.9-5.12,7.4-11.03,7.48-18.36c-0.73,0.23-1.27,0.41-1.82,0.58
		c-0.22,0.84-0.45,1.68-0.67,2.53c-1.11,4.41-2.84,8.48-5.91,11.7C80.03,70.79,78.9,70.21,77.77,69.62z"/>
	<path class="st2" d="M70.66,48.34c0.77-4.62,1.65-9.22,2.24-13.86c0.12-0.98-0.63-2.21-1.29-3.11c-2.46-3.36-1.51-6.63,0.01-9.94
		c-0.1-1.36-0.21-2.72-0.34-4.48c-2.4,3.16-2.95,6.51-3.41,10.02c0.65,1.2,1.19,2.57,2.04,3.71c1.8,2.41,1.89,4.99,1.3,7.79
		c-0.63,2.96-1.1,5.96-1.67,9.08C69.87,47.79,70.27,48.06,70.66,48.34z"/>
	<path class="st2" d="M10.55,55.69c0.05-1,0.09-2.01,0.16-3.35c8.42,0.06,16.45,1.67,24.34,4.22c0.49,0.08,0.98,0.16,1.7,0.27
		c-5.94-4.21-19.88-6.74-27.94-6.43C9.4,52.22,9.98,53.96,10.55,55.69z"/>
	<path class="st0" d="M47.66,66.4c-1.53,0.29-3.06,0.58-4.59,0.87c-0.97,2.56-1.88,4.97-2.79,7.37c3.06-0.45,6.11-0.91,9.17-1.36
		C48.85,70.99,48.26,68.7,47.66,66.4z"/>
	<path class="st0" d="M14.08,66.34c0.47,0.28,1,0.88,1.4,0.8c4.77-0.93,9.51-1.97,14.26-2.97c-0.14-0.62-0.29-1.23-0.43-1.85
		c-1.51,0-3.01,0-4.52,0c0.06,0.19,0.12,0.37,0.18,0.56c-0.99,0.49-1.98,0.99-3.09,1.53c-0.46-0.74-0.76-1.23-0.98-1.57
		c-2.79,0.45-5.23,0.85-7.79,1.27C13.53,65.05,13.81,65.69,14.08,66.34z"/>
	<path class="st2" d="M14.08,66.34c-0.28-0.65-0.56-1.3-0.97-2.24c2.56-0.42,5-0.81,7.79-1.27c0.22,0.35,0.52,0.83,0.98,1.57
		c1.11-0.55,2.1-1.04,3.09-1.53c-0.06-0.19-0.12-0.37-0.18-0.56c1.51,0,3.01,0,4.52,0c1.62-0.07,3.24-0.14,4.85-0.21
		c0.19-0.17,0.38-0.34,0.58-0.52c-0.05-0.25-0.09-0.5-0.14-0.75c-7.94,0.58-15.88,1.17-23.82,1.75c-0.07,0.25-0.15,0.5-0.22,0.76
		C11.74,64.34,12.91,65.34,14.08,66.34z"/>
	<path class="st2" d="M76.47,54.02c2.03-5.8,2.06-11.78,1.55-17.8c-0.07-0.86-0.11-1.72-0.16-2.59c-0.3-0.84-0.6-1.68-0.9-2.52
		c-0.3,5.06-0.52,10.12-0.93,15.17c-0.15,1.85-0.73,3.66-1.15,5.67C75.34,52.57,75.91,53.29,76.47,54.02z"/>
	<path class="st1" d="M87.32,59.81c0.22-0.84,0.45-1.68,0.67-2.53c-1.12,0.06-2.23,0.12-3.59,0.2c-1.92,3.85-3.57,8.06-7.86,10.42
		c0.51,0.45,0.87,0.77,1.23,1.09c0.53,0.15,1.05,0.3,1.9,0.54c1.93-3.05,3.8-6.01,5.77-9.13C85.95,60.25,86.63,60.03,87.32,59.81z"
		/>
	<path class="st1" d="M47.66,66.4c0.6,2.29,1.19,4.59,1.79,6.88c2.03-0.29,4.07-0.58,6.1-0.86c-1.84-2.23-3.68-4.46-5.65-6.86
		C49.24,65.81,48.45,66.1,47.66,66.4z"/>
	<path class="st0" d="M87.32,59.81c-0.68,0.22-1.37,0.44-1.87,0.6c-1.97,3.11-3.85,6.08-5.77,9.13c-0.85-0.24-1.38-0.39-1.9-0.54
		c0,0.21,0,0.42,0,0.63c1.13,0.58,2.26,1.17,3.65,1.88C84.48,68.29,86.21,64.22,87.32,59.81z"/>
	<path class="st4" d="M88.28,29.78c2.2-1.96,2.32-4.98,0.29-7.21c-2.15-2.36-5.39-2.46-7.76-0.23c0.31,0.43,0.62,0.85,0.93,1.28
		c1.75-0.71,3.52-1.47,5.14,0.22c1.35,1.4,1.11,2.99,0.39,4.6C87.62,28.88,87.95,29.33,88.28,29.78z"/>
	<path class="st3" d="M74.24,66.45c-1.26,0.7-2.52,1.4-3.78,2.1c-4.18,2.32-8.59,2.93-13.23,1.74c4.44,3.89,12.43,2.63,16.21-2.56
		C73.73,67.32,73.97,66.88,74.24,66.45z"/>
	<path class="st0" d="M27.18,66.83c-2.91,0.66-5.83,1.32-8.74,1.98c1.37,1.16,2.73,2.32,4.02,3.41c1.6-0.58,2.95-1.07,4.31-1.56
		C26.9,69.38,27.04,68.11,27.18,66.83z"/>
	<path class="st2" d="M63.57,46.63c0.46-0.01,0.92-0.01,1.38-0.02c1.24-4.17,2.48-8.35,3.72-12.52c-0.28-1.13-0.56-2.25-0.82-3.32
		c-1.66,5.27-3.27,10.4-4.88,15.53C63.17,46.4,63.37,46.52,63.57,46.63z"/>
	<path class="st0" d="M88.28,29.78c-0.33-0.45-0.66-0.89-1-1.34c-0.38,0.49-0.77,0.97-1.15,1.46c-5.22-0.68-6.35-2.31-4.39-6.28
		c-0.31-0.43-0.62-0.85-0.93-1.28c-1.54,1.98-2.45,4.04-1.08,6.53c1.5,2.72,3.98,2.78,6.8,2.55C87.04,30.94,87.66,30.36,88.28,29.78
		z"/>
	<path class="st0" d="M68.67,34.09c-1.24,4.17-2.48,8.35-3.72,12.52c0.79,0.05,1.57,0.09,2.67,0.15c0.64-3.79,1.3-7.5,1.84-11.22
		C69.52,35.1,68.94,34.57,68.67,34.09z"/>
	<path class="st3" d="M87.38,55.12c1.27-0.17,2.54-0.34,4.33-0.59c-0.95-3.68-1.86-7.21-2.84-11.01c-0.77,0.29-1.17,0.44-1.58,0.59
		c0.06,0.42,0.12,0.85,0.19,1.27c0.62,2.6,1.25,5.2,1.91,7.95c-0.94,0.36-1.65,0.64-2.37,0.91c-0.24,0.22-0.49,0.44-0.84,0.76
		C86.71,55.06,87.05,55.09,87.38,55.12z"/>
	<path class="st4" d="M83.92,11.81c0.87,0.39,1.75,0.78,2.62,1.17c0.13-0.26,0.25-0.51,0.38-0.77c-2.46-1.23-4.93-2.46-7.79-3.89
		c-0.26-1.21-0.61-2.88-1-4.67c-1.35-0.1-2.7-0.21-4.34-0.34c0.69,1.24,1.28,2.29,1.86,3.35c0.62,0,1.25,0,1.85,0
		c0.33,1.01,0.61,1.87,0.81,2.48C80.36,10.11,82.14,10.96,83.92,11.81z"/>
	<path class="st1" d="M87.47,45.39c-0.06-0.42-0.12-0.85-0.19-1.27c-0.7,0.05-1.4,0.09-2.2,0.15c0,3.78,0,7.37,0,11.28
		c1-0.19,1.65-0.31,2.3-0.43c-0.33-0.03-0.67-0.06-1.21-0.11c0.35-0.32,0.6-0.54,0.84-0.76c-0.16-2.14-0.42-4.27-0.42-6.41
		C86.59,47.02,87.16,46.2,87.47,45.39z"/>
	<path class="st3" d="M55.55,72.42c-2.03,0.29-4.07,0.58-6.1,0.86c-3.06,0.45-6.11,0.91-9.17,1.36c-0.15,0.37-0.31,0.73-0.55,1.31
		c6.07-0.89,11.91-1.75,17.75-2.6c0.01-0.12,0.03-0.25,0.04-0.37C56.86,72.8,56.2,72.61,55.55,72.42z"/>
	<path class="st2" d="M52.07,58.93c1.41,0.55,2.83,1.09,4.24,1.64c0.13-1.4,0.26-2.8,0.4-4.2c-0.82-0.88-1.65-1.77-2.47-2.65
		C53.52,55.45,52.79,57.19,52.07,58.93z"/>
	<path class="st0" d="M76.97,17.11c-1.11,0.23-2.21,0.45-3.38,0.69c-0.05,2.68,1.36,4.47,2.82,6.24c0.32-2.14,0.64-4.28,0.96-6.41
		C77.24,17.46,77.1,17.28,76.97,17.11z"/>
	<path class="st0" d="M69.85,7.73c1.01,1.52,2.03,3.03,3.11,4.65c0.85-0.23,1.59-0.42,2.55-0.68c-0.29-0.74-0.55-1.41-0.81-2.08
		c-0.88-0.98-1.77-1.96-2.95-3.27C71.14,6.8,70.5,7.27,69.85,7.73z"/>
	<path class="st1" d="M27.18,66.83c-0.14,1.28-0.28,2.55-0.42,3.83c0.13,0.07,0.27,0.1,0.42,0.09c1.14-0.58,2.29-1.16,3.81-1.94
		c0.22-0.59,0.58-1.57,1.17-3.19C30.13,66.11,28.65,66.47,27.18,66.83z"/>
	<path class="st1" d="M50.31,56.33c-0.58,0.17-1.15,0.33-1.73,0.5c-0.45,2.45-0.91,4.89-1.36,7.34c0.8-0.24,1.61-0.47,2.39-0.7
		C49.85,60.97,50.08,58.65,50.31,56.33z"/>
	<path class="st2" d="M70.92,62.76c1.14,1.1,2.28,2.21,3.41,3.31c0.4-1.02,0.81-2.05,1.21-3.07c-1.4-1.01-2.79-2.02-4.19-3.03
		C71.21,60.89,71.06,61.82,70.92,62.76z"/>
	<path class="st1" d="M85.64,34.98c-0.66-0.34-1.32-0.68-1.98-1.02c-0.2,0.19-0.41,0.38-0.61,0.56c0.73,2.57,0.03,5.42,1.89,7.78
		c0.43-0.39,0.87-0.78,1.3-1.17C85.38,39.14,84.19,37.19,85.64,34.98z"/>
	<path class="st3" d="M27.18,70.75c-0.15,0.01-0.29-0.02-0.42-0.09c-1.35,0.49-2.71,0.98-4.31,1.56c-1.28-1.09-2.65-2.25-4.02-3.41
		c0,0.36-0.15,0.84,0.03,1.05c1.24,1.49,2.55,2.92,3.94,4.49C24.25,72.96,25.72,71.85,27.18,70.75z"/>
	<path class="st0" d="M83.92,11.81c-1.78-0.85-3.57-1.7-5.6-2.67c-0.2-0.6-0.48-1.47-0.81-2.48c-0.61,0-1.23,0-1.85,0
		c0.77,1.55,1.55,3.09,2.27,4.54C80.06,11.42,81.99,11.61,83.92,11.81z"/>
	<path class="st4" d="M85.03,14.61c-3.34-1.51-6.76-1.58-10.51-0.38c3.66,0.36,7.04,0.68,10.42,1.01
		C84.97,15.03,85,14.82,85.03,14.61z"/>
	<path class="st3" d="M86.24,41.12c-0.43,0.39-0.87,0.78-1.3,1.17c1.54-0.3,3.09-0.59,5.23-1.01c-1.64-2.12-3.08-3.99-4.52-5.87
		c0.59,1.69,1.18,3.38,1.82,5.2C86.99,40.82,86.61,40.97,86.24,41.12z"/>
	<path class="st4" d="M69.85,7.73c0.65-0.47,1.3-0.94,1.9-1.38c1.18,1.31,2.06,2.29,2.95,3.27c-0.72-1.56-1.44-3.12-2.24-4.87
		c-1.29,0.21-2.53,0.42-4.13,0.69C68.94,6.36,69.39,7.05,69.85,7.73z"/>
	<path class="st0" d="M71.35,59.96c1.4,1.01,2.79,2.02,4.19,3.03c0.03-1.19,0.06-2.38,0.09-3.56c-1.45-0.32-2.91-0.64-4.36-0.95
		C71.3,58.97,71.33,59.47,71.35,59.96z"/>
	<path class="st4" d="M77.37,17.63c-0.32,2.14-0.64,4.28-0.96,6.41c0.31-0.01,0.79,0.09,0.89-0.06c0.76-1.18,1.45-2.4,2.26-3.78
		c-0.38-0.69-0.88-1.59-1.38-2.5C77.91,17.67,77.64,17.65,77.37,17.63z"/>
	<path class="st4" d="M80.56,5.76c0.13,0.48,0.26,0.95,0.36,1.32c1.98,0.89,3.85,1.73,5.72,2.57c0.11-0.18,0.22-0.36,0.33-0.54
		C84.99,7.8,83,6.5,81.02,5.2C80.87,5.39,80.71,5.57,80.56,5.76z"/>
	<path class="st0" d="M54.24,53.72c0.82,0.88,1.65,1.77,2.47,2.65c0.48-0.44,0.97-0.89,1.45-1.33c-0.86-1.02-1.71-2.05-2.57-3.07
		C55.14,52.55,54.69,53.13,54.24,53.72z"/>
	<path class="st1" d="M76.96,31.12c0.3,0.84,0.6,1.68,0.9,2.52c0.99,0.6,1.99,1.19,2.98,1.79c0.07-2.49-1.71-3.77-3.49-5.38
		C77.16,30.54,77.06,30.83,76.96,31.12z"/>
	<path class="st3" d="M77.37,17.63c0.27,0.02,0.54,0.04,0.81,0.06c0.94,0.26,1.89,0.51,3.31,0.9c0.48-0.06,1.46-0.19,2.47-0.32
		c-0.89-1.3-0.89-1.3-6.99-1.16C77.1,17.28,77.24,17.46,77.37,17.63z"/>
	<path class="st0" d="M86.24,41.12c0.37-0.15,0.74-0.3,1.23-0.49c-0.64-1.82-1.23-3.51-1.82-5.2c0-0.15-0.01-0.3-0.01-0.44
		C84.19,37.19,85.38,39.14,86.24,41.12z"/>
	<path class="st1" d="M34.17,62.11c-1.62,0.07-3.24,0.14-4.85,0.21c0.14,0.62,0.29,1.23,0.43,1.85
		C31.2,63.43,33.3,64.09,34.17,62.11z"/>
	<path class="st1" d="M79.54,61.17c-0.43-1.03-0.85-2.06-1.28-3.09c-0.2,1.64-0.4,3.28-0.6,4.93c0.29,0.1,0.59,0.2,0.88,0.3
		C78.87,62.59,79.2,61.88,79.54,61.17z"/>
	<path class="st0" d="M63.57,46.63c-0.2-0.11-0.4-0.22-0.6-0.33C63.17,46.4,63.37,46.52,63.57,46.63z"/>
	<path class="st5" d="M58.98,54.93c5.33-2.95,8.49-2.17,11.71,2.91c0.15,0.24,0.38,0.43,0.58,0.64c0.03,0.5,0.05,0.99,0.08,1.49
		c-0.15,0.93-0.29,1.86-0.44,2.79c-1.2,3.22-4.56,5.62-7.44,5.3c-4-0.44-6.61-3.18-7.16-7.49c0.13-1.4,0.26-2.8,0.4-4.2
		c0.48-0.44,0.97-0.89,1.45-1.33C58.44,55,58.76,55.05,58.98,54.93z M59.46,63.75c3.05,2.95,6,2.95,8.5-0.01
		c0.09-0.31,0.17-0.62,0.26-0.93c1.57-1.99,1.05-4.85-1.2-6.56c-2.34-1.78-5.31-1.39-7.01,0.93C58.23,59.38,58.05,61.53,59.46,63.75
		z"/>
	<path class="st5" d="M81.75,23.62c-1.97,3.97-0.83,5.6,4.39,6.28c0.38-0.49,0.77-0.97,1.15-1.46c0.72-1.61,0.95-3.2-0.39-4.6
		C85.27,22.15,83.5,22.91,81.75,23.62z"/>
	<path class="st0" d="M87.47,45.39c-0.31,0.82-0.88,1.64-0.88,2.45c0.01,2.14,0.26,4.27,0.42,6.41c0.71-0.27,1.43-0.55,2.37-0.91
		C88.72,50.59,88.1,47.99,87.47,45.39z"/>
	<path class="st0" d="M67.95,63.74c0.09-0.31,0.17-0.62,0.26-0.93c-0.75-3.6-3.9-5.76-8.21-5.63c-1.78,2.2-1.96,4.34-0.55,6.56
		c0.28-0.11,0.68-0.41,0.83-0.31C62.79,65.09,65.37,64.42,67.95,63.74z"/>
	<path class="st2" d="M60.01,57.19c4.31-0.13,7.46,2.03,8.21,5.63c1.57-1.99,1.05-4.85-1.2-6.56
		C64.67,54.47,61.71,54.87,60.01,57.19z"/>
	<path class="st3" d="M67.95,63.74c-2.58,0.68-5.16,1.35-7.67-0.3c-0.14-0.1-0.55,0.2-0.83,0.31C62.51,66.7,65.45,66.7,67.95,63.74z
		"/>
</g>
<g>
	<path class="st6" d="M128.86,84.35h-0.77c-0.63,0-1.05-0.28-1.27-0.91l-8.23-20.67h-0.98h-8.51v20.46c0,0.7-0.42,1.12-1.12,1.12
		h-0.56c-0.7,0-1.12-0.42-1.12-1.12V36.27c0-0.7,0.42-1.12,1.12-1.12h10.19c7.45,0,10.97,3.66,10.97,10.4v6.82
		c0,5.41-2.25,8.86-7.03,9.98l8.22,20.67C130.05,83.79,129.7,84.35,128.86,84.35z M125.76,51.1v-4.29c0-6.33-2.25-9-8.44-9h-8.22
		V60.1h8.22C123.51,60.1,125.76,57.43,125.76,51.1z"/>
	<path class="st6" d="M148.26,34.58h0.56c7.45,0,10.97,3.66,10.97,10.4v29.52c0,6.75-3.52,10.4-10.97,10.4h-0.56
		c-7.45,0-10.97-3.66-10.97-10.4V44.99C137.29,38.17,140.81,34.58,148.26,34.58z M148.54,82.24c6.19,0,8.44-2.67,8.44-9V46.25
		c0-6.33-2.25-9-8.44-9s-8.44,2.67-8.44,9v26.99C140.1,79.57,142.35,82.24,148.54,82.24z"/>
	<path class="st6" d="M185.72,58.77c4.78,0.7,5.76,4.71,5.76,7.8v8.08c0,5.48-3.37,9.7-10.83,9.7h-10.19c-0.7,0-1.12-0.42-1.12-1.12
		V36.27c0-0.7,0.42-1.12,1.12-1.12h10.33c7.45,0,10.4,4.22,10.4,9.7v6.19C191.21,54.13,190.22,58.34,185.72,58.77z M172.16,57.57
		h8.51c5.13,0,7.73-1.9,7.73-5.91v-5.69c0-5.41-1.9-8.16-7.73-8.16h-8.51V57.57z M180.94,60.24h-8.79v21.44h8.79
		c5.83,0,7.73-2.74,7.73-8.16v-7.38C188.67,62.14,186.07,60.24,180.94,60.24z"/>
	<path class="st6" d="M211.03,34.58h0.56c7.45,0,10.97,3.66,10.97,10.4v29.52c0,6.75-3.51,10.4-10.97,10.4h-0.56
		c-7.45,0-10.97-3.66-10.97-10.4V44.99C200.06,38.17,203.58,34.58,211.03,34.58z M211.31,82.24c6.19,0,8.44-2.67,8.44-9V46.25
		c0-6.33-2.25-9-8.44-9s-8.44,2.67-8.44,9v26.99C202.87,79.57,205.12,82.24,211.31,82.24z"/>
	<path class="st6" d="M249.83,36.27v0.42c0,0.7-0.42,1.12-1.12,1.12h-8.37v45.41c0,0.7-0.42,1.12-1.12,1.12h-0.56
		c-0.7,0-1.12-0.42-1.12-1.12V37.82h-8.37c-0.7,0-1.12-0.42-1.12-1.12v-0.42c0-0.7,0.42-1.12,1.12-1.12h19.54
		C249.41,35.14,249.83,35.57,249.83,36.27z"/>
	<path class="st6" d="M288.98,84.35h-0.77c-0.63,0-1.05-0.28-1.27-0.91l-8.22-20.67h-0.98h-8.51v20.46c0,0.7-0.42,1.12-1.12,1.12
		h-0.56c-0.7,0-1.12-0.42-1.12-1.12V36.27c0-0.7,0.42-1.12,1.12-1.12h10.19c7.45,0,10.97,3.66,10.97,10.4v6.82
		c0,5.41-2.25,8.86-7.03,9.98l8.22,20.67C290.18,83.79,289.83,84.35,288.98,84.35z M285.89,51.1v-4.29c0-6.33-2.25-9-8.44-9h-8.22
		V60.1h8.22C283.64,60.1,285.89,57.43,285.89,51.1z"/>
	<path class="st6" d="M308.38,34.58h0.56c7.45,0,10.97,3.66,10.97,10.4v29.52c0,6.75-3.51,10.4-10.97,10.4h-0.56
		c-7.45,0-10.97-3.66-10.97-10.4V44.99C297.41,38.17,300.93,34.58,308.38,34.58z M308.66,82.24c6.19,0,8.44-2.67,8.44-9V46.25
		c0-6.33-2.25-9-8.44-9c-6.19,0-8.44,2.67-8.44,9v26.99C300.23,79.57,302.48,82.24,308.66,82.24z"/>
	<path class="st6" d="M340.15,34.58h0.56c7.45,0,10.97,3.66,10.97,10.4v29.52c0,6.75-3.51,10.4-10.97,10.4h-0.56
		c-7.45,0-10.97-3.66-10.97-10.4V44.99C329.19,38.17,332.7,34.58,340.15,34.58z M340.43,82.24c6.19,0,8.44-2.67,8.44-9V46.25
		c0-6.33-2.25-9-8.44-9c-6.19,0-8.44,2.67-8.44,9v26.99C332,79.57,334.25,82.24,340.43,82.24z"/>
	<path class="st6" d="M380.64,52.02h-0.56c-0.7,0-1.12-0.42-1.12-1.12v-5.06c0-5.91-2.04-8.58-7.94-8.58
		c-5.91,0-7.94,2.67-7.94,8.58v3.44c0,3.94,1.41,4.85,5.41,7.03l7.94,4.29c3.09,1.69,5.48,4.57,5.48,7.87v6.19
		c0,6.89-3.3,10.26-10.75,10.26h-0.14c-7.45,0-10.76-3.3-10.76-10.26V67.9c0-0.7,0.42-1.12,1.12-1.12h0.56
		c0.7,0,1.12,0.42,1.12,1.12v5.62c0,5.83,2.04,8.72,8.01,8.72c5.97,0,8.01-2.88,8.01-8.72v-3.94c0-3.94-1.62-5.2-5.69-7.45
		l-7.73-4.22c-3.94-2.18-5.41-4.01-5.41-7.66v-5.55c0-6.61,3.94-10.12,10.69-10.12h0.14c6.75,0,10.68,3.51,10.68,10.12v6.19
		C381.77,51.59,381.34,52.02,380.64,52.02z"/>
	<path class="st6" d="M408.34,36.27v0.42c0,0.7-0.42,1.12-1.12,1.12h-8.37v45.41c0,0.7-0.42,1.12-1.12,1.12h-0.56
		c-0.7,0-1.12-0.42-1.12-1.12V37.82h-8.37c-0.7,0-1.12-0.42-1.12-1.12v-0.42c0-0.7,0.42-1.12,1.12-1.12h19.54
		C407.92,35.14,408.34,35.57,408.34,36.27z"/>
	<path class="st6" d="M432.24,84.35H415.5c-0.7,0-1.12-0.42-1.12-1.12V36.27c0-0.7,0.42-1.12,1.12-1.12h16.52
		c0.7,0,1.12,0.42,1.12,1.12v0.42c0,0.7-0.42,1.12-1.12,1.12h-14.83v20.25h12.65c0.7,0,1.12,0.42,1.12,1.12v0.42
		c0,0.7-0.42,1.12-1.12,1.12h-12.65v20.95h15.04c0.7,0,1.12,0.42,1.12,1.12v0.42C433.36,83.93,432.94,84.35,432.24,84.35z"/>
	<path class="st6" d="M463.23,84.35h-0.77c-0.63,0-1.05-0.28-1.27-0.91l-8.22-20.67h-0.98h-8.51v20.46c0,0.7-0.42,1.12-1.12,1.12
		h-0.56c-0.7,0-1.12-0.42-1.12-1.12V36.27c0-0.7,0.42-1.12,1.12-1.12h10.19c7.45,0,10.97,3.66,10.97,10.4v6.82
		c0,5.41-2.25,8.86-7.03,9.98l8.22,20.67C464.43,83.79,464.08,84.35,463.23,84.35z M460.14,51.1v-4.29c0-6.33-2.25-9-8.44-9h-8.22
		V60.1h8.22C457.89,60.1,460.14,57.43,460.14,51.1z"/>
</g>
<g>
	<path class="st6" d="M80.06,77.09l2.15,1.88l0.66-0.6c6.26-5.66,9.47-12.54,9.79-21.01l2.24-1.01L92,43.77l1.84-1.23l-5.31-8.94
		c2.41-1.74,3.87-4.02,4.16-6.51c0.24-2.08-0.35-4.19-1.7-6.08l2.57-0.25l0.91-1.83l-4.69-5.01l1.68-1.8l-0.22-0.58
		C89.71,7.42,86.69,4.51,82,2.65c-0.71-0.28-1.29-0.76-1.77-1.46l-0.27-0.4L70.54,0L70.1,1.97l-6.55,1.57l6.31,9.99
		c-2.61,3.03-4.24,6.83-4.96,11.6l-0.04,0.29c-0.61,4.04-1.25,8.22-2.22,12.22c-0.52,2.12-1.31,4.18-2.08,6.17
		c-0.28,0.72-0.55,1.42-0.8,2.1c-0.75,0.3-1.46,0.6-2.15,0.88c-1.7,0.69-3.23,1.32-4.77,1.91c-1.54,0.59-3.1,1.15-4.66,1.71
		l-1.02,0.37C42.88,35.9,32.49,27.72,17.78,27.72c-3.23,0-6.6,0.41-10.04,1.21l-0.61,0.14l-1.6,7.07l-4.5,0.78L0,51.07h5.77
		l2.78,9.17L5.6,61.51l0.79,1.02C6.77,63.02,7.14,63.51,7.5,64c1.99,2.67,3.87,5.19,7.23,6.37c0.09,0.04,0.3,0.27,0.42,0.41
		c0.1,0.11,0.2,0.22,0.3,0.31c1.55,1.54,3.09,3.09,4.63,4.64l2.06,2.07l6.83-4.54l-0.32,7.13l13.01-1.78l0.16,0.21l1.29,5.8
		c1.23,5.54,2.46,11.08,3.65,16.62c0.11,0.5,0.07,1.09,0.04,1.71c-0.01,0.15-0.02,0.3-0.02,0.44l-3.06,2.07l-0.24,2.83h1.09
		c0.71,0,1.41-0.02,2.1-0.04c0.66-0.02,1.31-0.03,1.96-0.03c0.9,0,1.63,0.03,2.31,0.1c2.42,0.25,4.55,0.26,7.02,0.27
		c1.16,0,2.41,0.01,3.81,0.04l2.59,0.05L57.26,102v2.85c-1.64-0.1-4.06-2-4.86-2.64c-0.01,0-0.01-0.01-0.02-0.01V91.91
		c1.32-1.87,3.29-2.4,5.37-2.96c0.81-0.22,1.65-0.44,2.45-0.75l0.18,0.32c0.43,0.77,0.83,1.5,1.26,2.21
		c2.01,3.33,4.04,6.66,6.06,9.99l1.9,3.12c-0.2,0.3-0.41,0.55-0.64,0.83c-0.35,0.43-0.75,0.91-1.14,1.63l-0.45,0.83l1.34,0.83
		l0.48,0.23l0.46-0.17c0.03-0.01,0.34-0.11,1.6-0.11c1.85,0,4.56,0.21,6.36,0.36c0.52,0.04,0.97,0.08,1.32,0.1
		c0.78,0.05,1.6,0.08,2.61,0.08c0.67,0,1.33-0.01,2-0.02c0.66-0.01,1.31-0.02,1.97-0.02h0.84l0.34-1.89l-3.28-3.05l-2.14-1.07
		l-0.16,2.05l-5.71-2.02l-4.74-13.91c1.1-1.33,2.06-2.76,3-4.14C75.52,81.59,77.31,78.95,80.06,77.09z M74.59,103.2
		c2.61,0.92,4.89,1.73,7.39,2.61c0.08-0.96,0.11-1.4,0.15-1.86c0.3,0.15,0.49,0.25,0.68,0.34c0.92,0.86,1.85,1.72,2.77,2.58
		c-0.03,0.18-0.06,0.35-0.09,0.53c-2.17,0-4.35,0.12-6.51-0.03c-2.15-0.15-8.65-0.77-9.75-0.26c-0.18-0.11-0.36-0.22-0.53-0.33
		c0.69-1.27,1.38-1.67,2.07-2.94c-2.76-4.54-5.52-9.08-8.27-13.63c-0.62-1.03-1.19-2.1-1.86-3.29c-2.96,1.48-7,1.14-9.26,4.68
		c0,3.56,0,7.25,0,11.08c0.59,0.4,4.54,3.94,6.88,3.01c0-0.37,0-0.77,0-1.38c1.21,1.14,2.28,2.15,3.5,3.31
		c-4.4-0.09-7.26,0.07-10.74-0.29c-2.1-0.22-4.24-0.04-6.47-0.04c0-0.02,0.05-0.64,0.11-1.27c1.09-0.73,2.09-1.41,3.09-2.09
		c0-0.97,0.18-1.98-0.02-2.9c-1.55-7.25-3.18-14.48-4.78-21.72c0.16-0.01,0.32-0.01,0.48-0.02c-0.44-0.58-0.87-1.15-1.33-1.75
		c-4.04,0.55-7.97,1.09-12.4,1.69c0.12-2.78,0.23-5.18,0.35-7.9c-2.6,1.73-5.05,3.36-7.78,5.18c-2.03-2.04-4.07-4.08-6.11-6.12
		c-0.34-0.34-0.67-0.81-1.09-0.96c-3.67-1.28-5.48-4.41-7.88-7.51c1.11-0.48,1.91-0.83,2.58-1.12c-1.05-3.46-2.11-6.96-3.26-10.73
		c-1.53,0-3.23,0-5.43,0c0.32-4.31,0.61-8.35,0.9-12.28c1.9-0.33,3.16-0.55,4.39-0.76c0.56-2.5,1.1-4.87,1.61-7.11
		c16.3-3.8,32.97,1.06,38.49,22.17c2.25-0.81,4.5-1.59,6.72-2.44c2.29-0.88,4.55-1.83,7.35-2.97c0.96-2.69,2.3-5.67,3.06-8.79
		c1.01-4.14,1.64-8.38,2.28-12.6c0.67-4.43,2.23-8.44,5.22-11.64c-2.01-3.18-3.86-6.12-5.96-9.44c2.32-0.56,4.05-0.97,5.8-1.39
		c0.1-0.47,0.22-1,0.38-1.72c2.77,0.23,5.43,0.45,8.08,0.68c0.62,0.91,1.37,1.49,2.23,1.83c4.01,1.59,7.11,4.1,8.67,8.3
		c-0.72,0.77-1.39,1.49-1.9,2.03c1.69,1.8,3.27,3.49,4.86,5.18c-0.12,0.24-0.24,0.47-0.35,0.71c-1.26,0.13-2.52,0.25-3.91,0.39
		c4.23,4.24,3.52,9.79-1.82,13.09c1.76,2.96,3.51,5.92,5.31,8.94c-0.9,0.6-1.39,0.93-1.63,1.09c0.99,4.28,1.94,8.4,2.87,12.45
		c-1.03,0.46-1.58,0.71-2.06,0.93c-0.18,8.4-3.24,15.28-9.48,20.92c-0.82-0.72-1.45-1.26-2.04-1.78c-4.98,3-7.04,8.27-10.64,12.45
		C71.25,93.38,72.94,98.35,74.59,103.2z"/>
</g>
</svg>
